<?xml version="1.0" encoding="UTF-8" standalone="no"?>
<svg width="1600" height="320" viewBox="0 0 1600 320" version="1.1" xmlns="http://www.w3.org/2000/svg">
  <defs>
    <!-- Load Xirod locally; adjust the URL to your font path -->
    <style type="text/css">
      @font-face {
        font-family: 'Xirod';
        src: url('') format('opentype');
        font-weight: normal;
        font-style: normal;
      }
    </style>

    <!-- Gunmetal/black background gradient -->
    <linearGradient id="bg_gunmetal" x1="0" y1="0" x2="0" y2="1">
      <stop offset="0%"   stop-color="#0b0f0b"/>
      <stop offset="50%"  stop-color="#050a06"/>
      <stop offset="100%" stop-color="#020302"/>
    </linearGradient>

    <!-- Pure Chrome Gradient (PhiGEN style) -->
    <linearGradient id="chrome_grad_xirod" x1="0%" y1="0%" x2="0%" y2="100%">
      <stop offset="0%"   stop-color="#ffffff"/>
      <stop offset="3%"   stop-color="#c0c0c0"/>
      <stop offset="8%"   stop-color="#404040"/>
      <stop offset="12%"  stop-color="#909090"/>
      <stop offset="25%"  stop-color="#e8e8e8"/>
      <stop offset="45%"  stop-color="#a0a0a0"/>
      <stop offset="55%"  stop-color="#505050"/>
      <stop offset="70%"  stop-color="#b0b0b0"/>
      <stop offset="85%"  stop-color="#f0f0f0"/>
      <stop offset="92%"  stop-color="#606060"/>
      <stop offset="100%" stop-color="#303030"/>
    </linearGradient>

    <!-- Chrome edge stroke hint -->
    <linearGradient id="chrome_edge" x1="0%" y1="0%" x2="100%" y2="0%">
      <stop offset="0%"   stop-color="#c8c8c8"/>
      <stop offset="50%"  stop-color="#ffffff"/>
      <stop offset="100%" stop-color="#b8b8b8"/>
    </linearGradient>

    <!-- Dramatic 45° Shadow Filter (sharp, heavy) -->
    <filter id="sharp_shadow" x="-0.15" y="-0.95" width="1.35" height="2.2">
      <feOffset in="SourceAlpha" dx="35" dy="35" result="off"/>
      <feGaussianBlur in="off" stdDeviation="17.5" result="blur"/>
      <feFlood flood-color="#000000" flood-opacity="0.72"/>
      <feComposite in2="blur" operator="in" result="shadow"/>
      <feMerge>
        <feMergeNode in="shadow"/>
        <feMergeNode in="SourceGraphic"/>
      </feMerge>
    </filter>

    <!-- Top highlight mask to get that crisp chrome strip -->
    <mask id="top_highlight_mask">
      <rect x="0" y="0" width="1600" height="60" fill="white"/>
    </mask>

    <!-- Letters mask (to clip the serrated stinger motif INTO the text) -->
    <mask id="lettersMask">
      <rect width="1600" height="320" fill="black"/>
      <g transform="translate(0,0)">
        <text x="130" y="220"
              font-family="Xirod, Impact, 'Arial Black', sans-serif"
              font-size="170" font-weight="700" letter-spacing="10"
              fill="white">PHIVECTOR</text>
      </g>
    </mask>

    <!-- Serrated stinger mask (to cut teeth along a diagonal band) -->
    <mask id="stingerMask">
      <!-- White base = band visible -->
      <rect x="-200" y="-50" width="2000" height="200" fill="white"/>
      <!-- Row of black triangles along the bottom edge to create serrations -->
      <g transform="translate(-200,120)">
        <!-- Repeat triangles across; tweak count/spacing as desired -->
        <g fill="black">
          <!-- Generate ~90 teeth (every 20 px) -->
          <!-- For brevity: a loop would be ideal; here is a reasonable span -->
          <polygon points="0,0 20,0 10,16"/>
          <polygon points="20,0 40,0 30,16"/>
          <polygon points="40,0 60,0 50,16"/>
          <polygon points="60,0 80,0 70,16"/>
          <polygon points="80,0 100,0 90,16"/>
          <polygon points="100,0 120,0 110,16"/>
          <polygon points="120,0 140,0 130,16"/>
          <polygon points="140,0 160,0 150,16"/>
          <polygon points="160,0 180,0 170,16"/>
          <polygon points="180,0 200,0 190,16"/>
          <polygon points="200,0 220,0 210,16"/>
          <polygon points="220,0 240,0 230,16"/>
          <polygon points="240,0 260,0 250,16"/>
          <polygon points="260,0 280,0 270,16"/>
          <polygon points="280,0 300,0 290,16"/>
          <polygon points="300,0 320,0 310,16"/>
          <polygon points="320,0 340,0 330,16"/>
          <polygon points="340,0 360,0 350,16"/>
          <polygon points="360,0 380,0 370,16"/>
          <polygon points="380,0 400,0 390,16"/>
          <polygon points="400,0 420,0 410,16"/>
          <polygon points="420,0 440,0 430,16"/>
          <polygon points="440,0 460,0 450,16"/>
          <polygon points="460,0 480,0 470,16"/>
          <polygon points="480,0 500,0 490,16"/>
          <polygon points="500,0 520,0 510,16"/>
          <polygon points="520,0 540,0 530,16"/>
          <polygon points="540,0 560,0 550,16"/>
          <polygon points="560,0 580,0 570,16"/>
          <polygon points="580,0 600,0 590,16"/>
          <polygon points="600,0 620,0 610,16"/>
          <polygon points="620,0 640,0 630,16"/>
          <polygon points="640,0 660,0 650,16"/>
          <polygon points="660,0 680,0 670,16"/>
          <polygon points="680,0 700,0 690,16"/>
          <polygon points="700,0 720,0 710,16"/>
          <polygon points="720,0 740,0 730,16"/>
          <polygon points="740,0 760,0 750,16"/>
          <polygon points="760,0 780,0 770,16"/>
          <polygon points="780,0 800,0 790,16"/>
          <polygon points="800,0 820,0 810,16"/>
          <polygon points="820,0 840,0 830,16"/>
          <polygon points="840,0 860,0 850,16"/>
          <polygon points="860,0 880,0 870,16"/>
          <polygon points="880,0 900,0 890,16"/>
          <polygon points="900,0 920,0 910,16"/>
          <polygon points="920,0 940,0 930,16"/>
          <polygon points="940,0 960,0 950,16"/>
          <polygon points="960,0 980,0 970,16"/>
          <polygon points="980,0 1000,0 990,16"/>
          <polygon points="1000,0 1020,0 1010,16"/>
          <polygon points="1020,0 1040,0 1030,16"/>
          <polygon points="1040,0 1060,0 1050,16"/>
          <polygon points="1060,0 1080,0 1070,16"/>
          <polygon points="1080,0 1100,0 1090,16"/>
          <polygon points="1100,0 1120,0 1110,16"/>
          <polygon points="1120,0 1140,0 1130,16"/>
          <polygon points="1140,0 1160,0 1150,16"/>
          <polygon points="1160,0 1180,0 1170,16"/>
          <polygon points="1180,0 1200,0 1190,16"/>
          <polygon points="1200,0 1220,0 1210,16"/>
          <polygon points="1220,0 1240,0 1230,16"/>
          <polygon points="1240,0 1260,0 1250,16"/>
          <polygon points="1260,0 1280,0 1270,16"/>
          <polygon points="1280,0 1300,0 1290,16"/>
          <polygon points="1300,0 1320,0 1310,16"/>
          <polygon points="1320,0 1340,0 1330,16"/>
          <polygon points="1340,0 1360,0 1350,16"/>
          <polygon points="1360,0 1380,0 1370,16"/>
          <polygon points="1380,0 1400,0 1390,16"/>
          <polygon points="1400,0 1420,0 1410,16"/>
          <polygon points="1420,0 1440,0 1430,16"/>
          <polygon points="1440,0 1460,0 1450,16"/>
          <polygon points="1460,0 1480,0 1470,16"/>
          <polygon points="1480,0 1500,0 1490,16"/>
          <polygon points="1500,0 1520,0 1510,16"/>
          <polygon points="1520,0 1540,0 1530,16"/>
          <polygon points="1540,0 1560,0 1550,16"/>
          <polygon points="1560,0 1580,0 1570,16"/>
          <polygon points="1580,0 1600,0 1590,16"/>
        </g>
      </g>
    </mask>

    <!-- Stinger band material (dark chrome/gunmetal with subtle green edge) -->
    <linearGradient id="stingerFill" x1="0%" y1="0%" x2="0%" y2="100%">
      <stop offset="0%"   stop-color="#c2c6ca"/>
      <stop offset="35%"  stop-color="#6b7075"/>
      <stop offset="65%"  stop-color="#9ea4a9"/>
      <stop offset="100%" stop-color="#3a3f44"/>
    </linearGradient>
    <linearGradient id="stingerEdge" x1="0%" y1="0%" x2="100%" y2="0%">
      <stop offset="0%"   stop-color="#39ff14" stop-opacity="0.18"/>
      <stop offset="50%"  stop-color="#39ff14" stop-opacity="0.22"/>
      <stop offset="100%" stop-color="#39ff14" stop-opacity="0.18"/>
    </linearGradient>

    <!-- Green bolt flare gradient (no blues) -->
    <radialGradient id="bolt_flare" cx="50%" cy="50%" r="50%">
      <stop offset="0%"   stop-color="#39ff14" stop-opacity="0.35"/>
      <stop offset="60%"  stop-color="#39ff14" stop-opacity="0.18"/>
      <stop offset="100%" stop-color="#39ff14" stop-opacity="0"/>
    </radialGradient>

    <!-- PLASMA STREAK GRADIENTS (PhiVector Soft Fade Palette) -->
    <!-- Hot core gradient (white-hot center to bright green) -->
    <linearGradient id="plasma_core" x1="0%" y1="0%" x2="100%" y2="0%">
      <stop offset="0%"   stop-color="#00DD00" stop-opacity="0.4"/>
      <stop offset="15%"  stop-color="#00FF00" stop-opacity="0.85"/>
      <stop offset="40%"  stop-color="#FFFFFF" stop-opacity="0.95"/>
      <stop offset="60%"  stop-color="#00FF00" stop-opacity="0.9"/>
      <stop offset="85%"  stop-color="#00EE00" stop-opacity="0.75"/>
      <stop offset="100%" stop-color="#00DD00" stop-opacity="0.5"/>
    </linearGradient>

    <!-- Outer glow layer (softer green halo) -->
    <linearGradient id="plasma_glow" x1="0%" y1="0%" x2="100%" y2="0%">
      <stop offset="0%"   stop-color="#00AA00" stop-opacity="0.15"/>
      <stop offset="25%"  stop-color="#00EE00" stop-opacity="0.35"/>
      <stop offset="50%"  stop-color="#00FF00" stop-opacity="0.45"/>
      <stop offset="75%"  stop-color="#00EE00" stop-opacity="0.38"/>
      <stop offset="100%" stop-color="#00DD00" stop-opacity="0.25"/>
    </linearGradient>

    <!-- Energy trail (fade out towards start) -->
    <linearGradient id="plasma_trail" x1="0%" y1="0%" x2="100%" y2="0%">
      <stop offset="0%"   stop-color="#00AA00" stop-opacity="0.05"/>
      <stop offset="30%"  stop-color="#00DD00" stop-opacity="0.18"/>
      <stop offset="65%"  stop-color="#00EE00" stop-opacity="0.32"/>
      <stop offset="100%" stop-color="#00FF00" stop-opacity="0.5"/>
    </linearGradient>

    <!-- Plasma flare burst (radial gradient for endpoint) -->
    <radialGradient id="plasma_burst" cx="30%" cy="50%" r="70%">
      <stop offset="0%"   stop-color="#FFFFFF" stop-opacity="0.85"/>
      <stop offset="15%"  stop-color="#00FF00" stop-opacity="0.75"/>
      <stop offset="40%"  stop-color="#00EE00" stop-opacity="0.55"/>
      <stop offset="70%"  stop-color="#00DD00" stop-opacity="0.3"/>
      <stop offset="100%" stop-color="#00AA00" stop-opacity="0"/>
    </radialGradient>

    <!-- Plasma glow filter (for bloom effect) -->
    <filter id="plasma_glow_filter" x="-50%" y="-50%" width="200%" height="200%">
      <feGaussianBlur in="SourceGraphic" stdDeviation="8" result="blur1"/>
      <feGaussianBlur in="SourceGraphic" stdDeviation="15" result="blur2"/>
      <feGaussianBlur in="SourceGraphic" stdDeviation="25" result="blur3"/>
      <feMerge>
        <feMergeNode in="blur3"/>
        <feMergeNode in="blur2"/>
        <feMergeNode in="blur1"/>
        <feMergeNode in="SourceGraphic"/>
      </feMerge>
    </filter>

    <!-- TEXTURE PATTERNS (PhiGEN Iconic Textures) -->
    <!-- Carbon Fiber Weave (45° rotated) -->
    <pattern id="carbon_fiber_pattern" x="0" y="0" width="16" height="16" patternUnits="userSpaceOnUse">
      <rect width="16" height="16" fill="transparent"/>
      <g transform="rotate(45 8 8)" opacity="0.65">
        <rect x="-8" y="6.5" width="32" height="1.1" fill="#000"/>
        <rect x="-8" y="9.5" width="32" height="1.1" fill="#000" opacity="0.6"/>
        <rect x="-8" y="0.5" width="32" height="1.1" fill="#00DD00" opacity="0.25"/>
        <rect x="-8" y="3.5" width="32" height="1.1" fill="#000" opacity="0.4"/>
      </g>
    </pattern>

    <!-- Graphene Hexagonal Mesh -->
    <pattern id="graphene_hex_pattern" x="0" y="0" width="24" height="20.7846" patternUnits="userSpaceOnUse">
      <rect width="24" height="20.7846" fill="transparent"/>
      <g fill="none" stroke="#00EE00" stroke-opacity="0.28" stroke-width="0.8">
        <path d="M6,0 L18,0 L24,10.3923 L18,20.7846 L6,20.7846 L0,10.3923 Z"/>
        <path d="M18,0 L24,10.3923"/>
        <path d="M6,0 L0,10.3923"/>
      </g>
    </pattern>

    <!-- Snake Scale (organic metallic) -->
    <pattern id="snake_scale_pattern" x="0" y="0" width="48" height="28" patternUnits="userSpaceOnUse">
      <rect width="48" height="28" fill="transparent"/>
      <g opacity="0.35">
        <ellipse cx="12" cy="14" rx="11" ry="10" fill="none" stroke="#00FF00" stroke-width="0.8" opacity="0.4"/>
        <ellipse cx="36" cy="14" rx="11" ry="10" fill="none" stroke="#00DD00" stroke-width="0.8" opacity="0.4"/>
        <ellipse cx="24" cy="0" rx="11" ry="10" fill="none" stroke="#00EE00" stroke-width="0.8" opacity="0.3"/>
        <ellipse cx="24" cy="28" rx="11" ry="10" fill="none" stroke="#00EE00" stroke-width="0.8" opacity="0.3"/>
      </g>
    </pattern>

    <!-- Combined texture overlay gradient for plasma -->
    <linearGradient id="plasma_texture_overlay" x1="0%" y1="0%" x2="100%" y2="0%">
      <stop offset="0%"   stop-color="#00AA00" stop-opacity="0.25"/>
      <stop offset="50%"  stop-color="#00FF00" stop-opacity="0.4"/>
      <stop offset="100%" stop-color="#00DD00" stop-opacity="0.3"/>
    </linearGradient>
  </defs>

  <!-- BACKGROUND -->
  <rect x="0" y="0" width="1600" height="320" fill="url(#bg_gunmetal)"/>

  <!-- MAIN WORD (chrome) -->
  <g id="word">
    <text x="130" y="220"
          font-family="Xirod, Impact, 'Arial Black', sans-serif"
          font-size="170" font-weight="700" letter-spacing="10"
          fill="url(#chrome_grad_xirod)"
          stroke="#101010" stroke-width="4"
          filter="url(#sharp_shadow)">PHIVECTOR</text>

    <!-- Top chrome highlight strip -->
    <g mask="url(#top_highlight_mask)" opacity="0.16">
      <text x="130" y="220"
            font-family="Xirod, Impact, 'Arial Black', sans-serif"
            font-size="170" font-weight="700" letter-spacing="10"
            fill="#ffffff">PHIVECTOR</text>
    </g>

    <!-- Edge sheen -->
    <text x="130" y="220"
          font-family="Xirod, Impact, 'Arial Black', sans-serif"
          font-size="170" font-weight="700" letter-spacing="10"
          fill="none" stroke="url(#chrome_edge)" stroke-width="1.8" opacity="0.9">PHIVECTOR</text>
  </g>

  <!-- SERRATED “BEE STINGER” MOTIF (clipped into letters) -->
  <g style="mix-blend-mode:normal" mask="url(#lettersMask)">
    <!-- Diagonal band with serrated lower edge -->
    <g transform="translate(0,0) rotate(-14 800 160)">
      <g mask="url(#stingerMask)">
        <!-- Band fill -->
        <rect x="-200" y="-50" width="2000" height="200" fill="url(#stingerFill)" opacity="0.9"/>
        <!-- A subtle neon edge line along the band (green only) -->
        <rect x="-200" y="-50" width="2000" height="3" fill="url(#stingerEdge)" opacity="0.9"/>
      </g>
    </g>
    <!-- Micro second pass (lighter, thinner) for depth -->
    <g transform="translate(0,0) rotate(-14 800 160)" opacity="0.35">
      <g mask="url(#stingerMask)">
        <rect x="-200" y="30" width="2000" height="90" fill="#2a2e31"/>
      </g>
    </g>
  </g>

  <!-- PROFESSIONAL PLASMA STREAK (Multi-layered translucent energy blast with iconic textures) -->
  <g id="plasma_streak">
    <!-- Layer 1: Wide outer glow (softest, largest radius) -->
    <path d="M 80 270
             C 360 240, 720 285, 1080 260
             S 1450 250, 1520 260"
          fill="none" stroke="url(#plasma_glow)" stroke-width="45" stroke-linecap="round"
          filter="url(#plasma_glow_filter)" opacity="0.6"/>

    <!-- Layer 2: Energy trail (medium glow) -->
    <path d="M 80 270
             C 360 240, 720 285, 1080 260
             S 1450 250, 1520 260"
          fill="none" stroke="url(#plasma_trail)" stroke-width="28" stroke-linecap="round"
          filter="url(#plasma_glow_filter)" opacity="0.75"/>

    <!-- TEXTURE LAYER 1: Carbon Fiber weave through plasma (structural depth) -->
    <g opacity="0.35">
      <path d="M 80 270
               C 360 240, 720 285, 1080 260
               S 1450 250, 1520 260"
            fill="none" stroke="url(#carbon_fiber_pattern)" stroke-width="32" stroke-linecap="round"/>
      <!-- Second pass for weave complexity -->
      <path d="M 80 270
               C 360 240, 720 285, 1080 260
               S 1450 250, 1520 260"
            fill="none" stroke="url(#carbon_fiber_pattern)" stroke-width="18" stroke-linecap="round"
            opacity="0.6"/>
    </g>

    <!-- TEXTURE LAYER 2: Graphene hex mesh (detail overlay) -->
    <g opacity="0.45">
      <path d="M 80 270
               C 360 240, 720 285, 1080 260
               S 1450 250, 1520 260"
            fill="none" stroke="url(#graphene_hex_pattern)" stroke-width="24" stroke-linecap="round"/>
    </g>

    <!-- Layer 3: Hot core (bright center line with white-hot sections) -->
    <path d="M 80 270
             C 360 240, 720 285, 1080 260
             S 1450 250, 1520 260"
          fill="none" stroke="url(#plasma_core)" stroke-width="14" stroke-linecap="round"
          opacity="0.95"/>

    <!-- TEXTURE LAYER 3: Snake scale (organic complexity) -->
    <g opacity="0.4">
      <path d="M 80 270
               C 360 240, 720 285, 1080 260
               S 1450 250, 1520 260"
            fill="none" stroke="url(#snake_scale_pattern)" stroke-width="16" stroke-linecap="round"/>
    </g>

    <!-- Layer 4: Ultra-bright center spine (pure energy) -->
    <path d="M 80 270
             C 360 240, 720 285, 1080 260
             S 1450 250, 1520 260"
          fill="none" stroke="#FFFFFF" stroke-width="3" stroke-linecap="round"
          opacity="0.7"/>

    <!-- TEXTURE LAYER 4: Micro carbon fiber accent (fine detail) -->
    <path d="M 80 270
             C 360 240, 720 285, 1080 260
             S 1450 250, 1520 260"
          fill="none" stroke="url(#carbon_fiber_pattern)" stroke-width="8" stroke-linecap="round"
          opacity="0.25"/>

    <!-- Layer 5: Scattered energy particles (adds texture) -->
    <path d="M 80 270
             C 360 240, 720 285, 1080 260
             S 1450 250, 1520 260"
          fill="none" stroke="#00FF00" stroke-width="1.5" stroke-linecap="round"
          stroke-dasharray="8 12" opacity="0.85"/>

    <!-- TEXTURE OVERLAY: Combined pattern wash for depth -->
    <path d="M 80 270
             C 360 240, 720 285, 1080 260
             S 1450 250, 1520 260"
          fill="none" stroke="url(#plasma_texture_overlay)" stroke-width="36" stroke-linecap="round"
          opacity="0.22"/>
  </g>

  <!-- PLASMA BURST FLARE (Endpoint explosion with textured depth) -->
  <g transform="translate(1520,260)">
    <!-- Outer bloom (largest, softest) -->
    <ellipse cx="0" cy="0" rx="120" ry="85" fill="url(#plasma_burst)"
             filter="url(#plasma_glow_filter)" opacity="0.65"/>

    <!-- TEXTURE: Carbon fiber in outer bloom -->
    <ellipse cx="0" cy="0" rx="110" ry="78" fill="url(#carbon_fiber_pattern)" opacity="0.18"/>

    <!-- Mid-range glow -->
    <ellipse cx="0" cy="0" rx="80" ry="60" fill="url(#plasma_burst)" opacity="0.8"/>

    <!-- TEXTURE: Graphene mesh in mid-range -->
    <ellipse cx="0" cy="0" rx="72" ry="54" fill="url(#graphene_hex_pattern)" opacity="0.25"/>

    <!-- Hot core burst -->
    <circle cx="0" cy="0" r="45" fill="url(#plasma_burst)" opacity="0.95"/>

    <!-- TEXTURE: Snake scale in hot core (organic detail) -->
    <circle cx="0" cy="0" r="38" fill="url(#snake_scale_pattern)" opacity="0.3"/>

    <!-- Directional plasma wedge (forward blast) -->
    <path d="M 0 0 L 80 -18 L 140 -6 L 140 6 L 80 18 Z"
          fill="url(#plasma_core)" opacity="0.55"
          filter="url(#plasma_glow_filter)"/>

    <!-- TEXTURE: Carbon fiber through wedge -->
    <path d="M 0 0 L 75 -16 L 130 -5 L 130 5 L 75 16 Z"
          fill="url(#carbon_fiber_pattern)" opacity="0.28"/>

    <!-- Bright directional spear (center highlight) -->
    <path d="M 0 0 L 60 -8 L 100 -3 L 100 3 L 60 8 Z"
          fill="#00FF00" opacity="0.75"/>

    <!-- TEXTURE: Graphene detail in spear -->
    <path d="M 0 0 L 55 -7 L 90 -2 L 90 2 L 55 7 Z"
          fill="url(#graphene_hex_pattern)" opacity="0.35"/>

    <!-- White-hot tip -->
    <path d="M 0 0 L 40 -4 L 70 -1 L 70 1 L 40 4 Z"
          fill="#FFFFFF" opacity="0.6"/>

    <!-- Energy sparks (scattered particles at endpoint) -->
    <circle cx="0" cy="0" r="6" fill="#FFFFFF" opacity="0.9"/>

    <!-- Textured energy sparks -->
    <g opacity="0.8">
      <circle cx="25" cy="-8" r="3" fill="#00FF00"/>
      <circle cx="25" cy="-8" r="2.5" fill="url(#graphene_hex_pattern)" opacity="0.4"/>
      <circle cx="25" cy="8" r="3" fill="#00FF00"/>
      <circle cx="25" cy="8" r="2.5" fill="url(#graphene_hex_pattern)" opacity="0.4"/>
    </g>

    <g opacity="0.7">
      <circle cx="45" cy="-12" r="2.5" fill="#00EE00"/>
      <circle cx="45" cy="-12" r="2" fill="url(#snake_scale_pattern)" opacity="0.35"/>
      <circle cx="45" cy="12" r="2.5" fill="#00EE00"/>
      <circle cx="45" cy="12" r="2" fill="url(#snake_scale_pattern)" opacity="0.35"/>
    </g>

    <g opacity="0.6">
      <circle cx="65" cy="-6" r="2" fill="#00DD00"/>
      <circle cx="65" cy="-6" r="1.6" fill="url(#carbon_fiber_pattern)" opacity="0.3"/>
      <circle cx="65" cy="6" r="2" fill="#00DD00"/>
      <circle cx="65" cy="6" r="1.6" fill="url(#carbon_fiber_pattern)" opacity="0.3"/>
    </g>

    <!-- Additional micro-sparks with texture (complexity) -->
    <circle cx="90" cy="-10" r="1.5" fill="#00EE00" opacity="0.6"/>
    <circle cx="90" cy="10" r="1.5" fill="#00EE00" opacity="0.6"/>
    <circle cx="110" cy="-4" r="1.2" fill="#00DD00" opacity="0.5"/>
    <circle cx="110" cy="4" r="1.2" fill="#00DD00" opacity="0.5"/>
    <circle cx="125" cy="0" r="1" fill="#00AA00" opacity="0.4"/>
  </g>
</svg>
